<?xml version="1.0" standalone="no"?><svg xmlns="http://www.w3.org/2000/svg" viewBox="0 0 1440 320"><path fill="#4a148c" fill-opacity="1" d="M0,64L26.7,69.3C53.3,75,107,85,160,85.3C213.3,85,267,75,320,58.7C373.3,43,427,21,480,16C533.3,11,587,21,640,42.7C693.3,64,747,96,800,133.3C853.3,171,907,213,960,229.3C1013.3,245,1067,235,1120,224C1173.3,213,1227,203,1280,197.3C1333.3,192,1387,192,1413,192L1440,192L1440,0L1413.3,0C1386.7,0,1333,0,1280,0C1226.7,0,1173,0,1120,0C1066.7,0,1013,0,960,0C906.7,0,853,0,800,0C746.7,0,693,0,640,0C586.7,0,533,0,480,0C426.7,0,373,0,320,0C266.7,0,213,0,160,0C106.7,0,53,0,27,0L0,0Z"></path></svg>