<?xml version="1.0" standalone="no"?><svg xmlns="http://www.w3.org/2000/svg" viewBox="0 0 1440 320"><path fill="#4a148c" fill-opacity="1" d="M0,160L26.7,160C53.3,160,107,160,160,144C213.3,128,267,96,320,106.7C373.3,117,427,171,480,181.3C533.3,192,587,160,640,122.7C693.3,85,747,43,800,26.7C853.3,11,907,21,960,74.7C1013.3,128,1067,224,1120,234.7C1173.3,245,1227,171,1280,133.3C1333.3,96,1387,96,1413,96L1440,96L1440,0L1413.3,0C1386.7,0,1333,0,1280,0C1226.7,0,1173,0,1120,0C1066.7,0,1013,0,960,0C906.7,0,853,0,800,0C746.7,0,693,0,640,0C586.7,0,533,0,480,0C426.7,0,373,0,320,0C266.7,0,213,0,160,0C106.7,0,53,0,27,0L0,0Z"></path></svg>